# xmcd
#
# Track frame offsets: 
#        150
#        3140
#        18797
#        33365
#        62265
#        75835
#        91605
#        105225
#        122700
#        136057
#
# Disc length: 2148 seconds
#
# Revision: 2
# Processed by: cddbd v1.5PL3 Copyright (c) Steve Scherf et al.
# Submitted via: ExactAudioCopy v0.90b4
#
DISCID=5408620a
DTITLE=Ronnie Milsap - Christmas With Ronnie Milsap
DYEAR=1900
DGENRE=Country
TTITLE0=Noel Prelude
TTITLE1=Only One Night Of The Year
TTITLE2=I'll Be Home For Christmas
TTITLE3=Christmas Medley
TTITLE4=It's Christmas
TTITLE5=It's Just Not Christmas
TTITLE6=Silver Bells
TTITLE7=O Holy Night
TTITLE8=Christmas Thoughts
TTITLE9=We're Here To Love
EXTD=
EXTT0=
EXTT1=
EXTT2=
EXTT3=
EXTT4=
EXTT5=
EXTT6=
EXTT7=
EXTT8=
EXTT9=
PLAYORDER=
